static_grf.mot
version=1
nRows=30
nColumns 19
inDegrees=yes
endheader
time	1_ground_force_vx	1_ground_force_vy	1_ground_force_vz	1_ground_force_px	1_ground_force_py	1_ground_force_pz	1_ground_torque_x	1_ground_torque_y	1_ground_torque_z	2_ground_force_vx	2_ground_force_vy	2_ground_force_vz	2_ground_force_px	2_ground_force_py	2_ground_force_pz	2_ground_torque_x	2_ground_torque_y	2_ground_torque_z
            0.005000	            3.842203	          252.646555	          -20.754279	           -0.273687	            0.006176	           -0.396142	            0.019035	            1.251665	           -0.102821	           -4.645748	          225.306855	           22.345874	           -0.235498	            0.005642	           -0.699960	            0.029236	           -1.417869	           -0.140624
            0.005500	            3.750517	          252.646537	          -20.754051	           -0.273848	            0.006175	           -0.395845	            0.018699	            1.259598	           -0.103472	           -4.833771	          225.489984	           22.440466	           -0.234684	            0.005644	           -0.699737	            0.029062	           -1.355718	           -0.134919
            0.006000	            3.750762	          251.925278	          -20.711287	           -0.274476	            0.006176	           -0.396088	            0.019219	            1.290847	           -0.106123	           -4.923463	          224.384604	           22.483492	           -0.234702	            0.005641	           -0.698909	            0.029201	           -1.330826	           -0.133350
            0.006500	            3.750906	          253.006282	          -20.569082	           -0.273797	            0.006174	           -0.395688	            0.018539	            1.250476	           -0.101662	           -4.645063	          225.122547	           22.392145	           -0.234997	            0.005642	           -0.699685	            0.029209	           -1.415611	           -0.140806
            0.007000	            3.750580	          253.547472	          -20.658475	           -0.273802	            0.006174	           -0.395629	            0.017730	            1.198575	           -0.097657	           -4.695215	          226.042944	           22.442378	           -0.234498	            0.005646	           -0.700231	            0.028900	           -1.391330	           -0.138136
            0.007500	            3.796489	          253.186950	          -20.660134	           -0.273928	            0.006174	           -0.395606	            0.017832	            1.189201	           -0.097039	           -4.831051	          224.752889	           22.578623	           -0.234857	            0.005641	           -0.699214	            0.028981	           -1.348274	           -0.135447
            0.008000	            3.842122	          252.466486	          -20.800908	           -0.273637	            0.006178	           -0.396473	            0.019220	            1.262956	           -0.104056	           -4.643775	          224.754570	           22.296974	           -0.234941	            0.005640	           -0.698968	            0.028186	           -1.364157	           -0.135332
            0.008500	            4.025931	          253.186601	          -20.568991	           -0.273940	            0.006175	           -0.395804	            0.020115	            1.265038	           -0.102772	           -4.689960	          224.570260	           22.296337	           -0.234945	            0.005640	           -0.699024	            0.028364	           -1.358157	           -0.134844
            0.009000	            3.750729	          252.105543	          -20.710514	           -0.274231	            0.006177	           -0.396362	            0.018866	            1.268065	           -0.104172	           -4.734007	          223.832326	           22.622226	           -0.235359	            0.005638	           -0.698830	            0.028984	           -1.370435	           -0.138507
            0.009500	            3.704934	          252.465869	          -20.662999	           -0.273751	            0.006178	           -0.396454	            0.017931	            1.221871	           -0.100004	           -4.927450	          225.489479	           22.487434	           -0.235196	            0.005642	           -0.699903	            0.028992	           -1.326731	           -0.132311
            0.010000	            3.841568	          253.008069	          -20.982012	           -0.274129	            0.006175	           -0.395827	            0.019696	            1.297195	           -0.107577	           -4.924936	          224.754057	           22.156309	           -0.235392	            0.005640	           -0.699299	            0.028467	           -1.299114	           -0.128067
            0.010500	            3.979876	          253.727585	          -20.612415	           -0.274149	            0.006174	           -0.395732	            0.020272	            1.292412	           -0.104993	           -4.736666	          224.568919	           22.624854	           -0.235363	            0.005639	           -0.699023	            0.028325	           -1.342932	           -0.135298
            0.011000	            3.888417	          253.727175	          -20.520475	           -0.273595	            0.006173	           -0.395280	            0.018774	            1.225013	           -0.099074	           -4.783639	          224.569754	           22.343305	           -0.235385	            0.005639	           -0.699108	            0.027867	           -1.308228	           -0.130161
            0.011500	            3.704380	          253.007453	          -20.844103	           -0.274237	            0.006173	           -0.395436	            0.018640	            1.273100	           -0.104885	           -4.600186	          225.675001	           22.441024	           -0.234929	            0.005643	           -0.699685	            0.027801	           -1.363852	           -0.135621
            0.012000	            4.025757	          251.024396	          -20.807546	           -0.274119	            0.006179	           -0.396754	            0.021007	            1.309856	           -0.108575	           -4.502560	          224.570937	           22.296257	           -0.234934	            0.005641	           -0.699278	            0.027750	           -1.384086	           -0.137417
            0.012500	            3.703955	          254.089440	          -20.931177	           -0.273833	            0.006174	           -0.395519	            0.018892	            1.296007	           -0.106761	           -4.644336	          224.937904	           22.532272	           -0.235008	            0.005640	           -0.699160	            0.028614	           -1.385861	           -0.138823
            0.013000	            3.842317	          252.646358	          -20.708423	           -0.274061	            0.006175	           -0.395984	            0.018982	            1.248109	           -0.102303	           -4.646330	          225.490326	           22.534243	           -0.235254	            0.005642	           -0.699739	            0.028518	           -1.383986	           -0.138308
            0.013500	            3.934440	          253.366455	          -20.476279	           -0.273778	            0.006173	           -0.395320	            0.019732	            1.270696	           -0.102694	           -4.645727	          225.306688	           22.392802	           -0.235114	            0.005641	           -0.699467	            0.027471	           -1.332267	           -0.132411
            0.014000	            3.888468	          252.826043	          -20.570196	           -0.274470	            0.006176	           -0.396007	            0.019347	            1.257930	           -0.102347	           -4.550678	          224.938577	           22.438376	           -0.235171	            0.005640	           -0.699078	            0.028352	           -1.401432	           -0.139798
            0.014500	            3.750385	          253.367600	          -20.750959	           -0.274036	            0.006175	           -0.395815	            0.018430	            1.245092	           -0.101974	           -4.548787	          224.386961	           22.201764	           -0.235009	            0.005639	           -0.698745	            0.028684	           -1.414950	           -0.140001
            0.015000	            3.888486	          252.105177	          -20.619144	           -0.274208	            0.006177	           -0.396343	            0.019649	            1.273942	           -0.104193	           -4.835121	          225.858464	           22.394853	           -0.235347	            0.005641	           -0.699705	            0.029122	           -1.360352	           -0.134885
            0.015500	            3.842218	          253.187155	          -20.706104	           -0.274212	            0.006175	           -0.395908	            0.018284	            1.204875	           -0.098537	           -4.879997	          225.306009	           22.345973	           -0.234939	            0.005642	           -0.699459	            0.029318	           -1.353597	           -0.134250
            0.016000	            3.796000	          253.368002	          -20.842785	           -0.273501	            0.006175	           -0.395904	            0.018913	            1.262388	           -0.103848	           -4.598233	          225.122883	           22.345197	           -0.235344	            0.005639	           -0.699020	            0.028369	           -1.388925	           -0.137862
            0.016500	            4.070881	          252.467316	          -20.984900	           -0.274487	            0.006175	           -0.395828	            0.020372	            1.263414	           -0.105014	           -4.647139	          225.675669	           22.206403	           -0.235608	            0.005641	           -0.699934	            0.027872	           -1.353527	           -0.133187
            0.017000	            3.979846	          252.646385	          -20.708764	           -0.274253	            0.006176	           -0.396054	            0.020037	            1.271980	           -0.104261	           -4.739386	          225.306015	           22.486698	           -0.235354	            0.005640	           -0.699463	            0.028471	           -1.353480	           -0.135084
            0.017500	            3.659041	          253.366992	          -20.613164	           -0.273759	            0.006174	           -0.395573	            0.017881	            1.238157	           -0.100733	           -4.550075	          224.754908	           22.296934	           -0.235205	            0.005639	           -0.699056	            0.027037	           -1.335526	           -0.132492
            0.018000	            3.842122	          252.466486	          -20.800908	           -0.273621	            0.006176	           -0.396024	            0.019892	            1.307088	           -0.107692	           -4.598233	          225.122883	           22.345197	           -0.234945	            0.005642	           -0.699524	            0.027461	           -1.344437	           -0.133446
            0.018500	            3.888321	          253.006505	          -20.615279	           -0.274004	            0.006176	           -0.396214	            0.018934	            1.232008	           -0.100386	           -4.786962	          225.490488	           22.346590	           -0.234937	            0.005641	           -0.699155	            0.028775	           -1.355455	           -0.134329
            0.019000	            3.796878	          253.546695	          -20.475165	           -0.274086	            0.006173	           -0.395521	            0.018297	            1.221820	           -0.098668	           -4.739427	          225.306349	           22.392841	           -0.235033	            0.005641	           -0.699298	            0.027908	           -1.326727	           -0.131861
            0.019500	            3.841747	          252.647341	          -20.937702	           -0.274056	            0.006175	           -0.395949	            0.018976	            1.247956	           -0.103422	           -4.883197	          226.225739	           22.630827	           -0.235091	            0.005644	           -0.700172	            0.029164	           -1.351111	           -0.135160
